<svg xmlns="http://www.w3.org/2000/svg" xmlns:xlink="http://www.w3.org/1999/xlink" width="40" zoomAndPan="magnify" viewBox="0 0 30 30.000001" height="40" preserveAspectRatio="xMidYMid meet" version="1.0"><defs><g/></defs><g fill="#6bb666" fill-opacity="1"><g transform="translate(6.865529, 22.992756)"><g><path d="M 2.265625 0 L 2.265625 -17.40625 L 9.25 -17.40625 C 11.050781 -17.40625 12.410156 -16.988281 13.328125 -16.15625 C 14.242188 -15.320312 14.703125 -14.175781 14.703125 -12.71875 C 14.703125 -11.664062 14.429688 -10.800781 13.890625 -10.125 C 13.359375 -9.445312 12.5625 -8.929688 11.5 -8.578125 L 11.5 -8.328125 C 12.039062 -8.085938 12.476562 -7.734375 12.8125 -7.265625 C 13.15625 -6.796875 13.476562 -6.101562 13.78125 -5.1875 L 15.515625 0 L 11.984375 0 L 10.28125 -5.203125 C 10.101562 -5.722656 9.90625 -6.128906 9.6875 -6.421875 C 9.46875 -6.710938 9.191406 -6.921875 8.859375 -7.046875 C 8.523438 -7.179688 8.085938 -7.25 7.546875 -7.25 L 5.703125 -7.25 L 5.703125 0 Z M 8.828125 -9.96875 C 10.492188 -9.96875 11.328125 -10.75 11.328125 -12.3125 C 11.328125 -13.882812 10.492188 -14.671875 8.828125 -14.671875 L 5.703125 -14.671875 L 5.703125 -9.96875 Z M 8.828125 -9.96875 "/></g></g></g></svg>