<svg xmlns="http://www.w3.org/2000/svg" xmlns:xlink="http://www.w3.org/1999/xlink" width="500" zoomAndPan="magnify" viewBox="0 0 375 165.000002" height="220" preserveAspectRatio="xMidYMid meet" version="1.0"><defs><g/></defs><g fill="#7ab55c" fill-opacity="1"><g transform="translate(140.720566, 131.735296)"><g><path d="M 15.265625 0 L 15.265625 -100.96875 L 51.9375 -100.96875 C 58.707031 -100.96875 64.390625 -99.847656 68.984375 -97.609375 C 73.585938 -95.378906 77.039062 -92.226562 79.34375 -88.15625 C 81.644531 -84.082031 82.796875 -79.257812 82.796875 -73.6875 C 82.796875 -67.425781 81.226562 -62.257812 78.09375 -58.1875 C 74.96875 -54.113281 70.09375 -51.0625 63.46875 -49.03125 L 63.46875 -47.578125 C 66.738281 -46.296875 69.410156 -44.269531 71.484375 -41.5 C 73.554688 -38.738281 75.460938 -34.617188 77.203125 -29.140625 L 86.53125 0 L 74.3125 0 L 64.234375 -30.875 C 63.035156 -34.507812 61.648438 -37.363281 60.078125 -39.4375 C 58.515625 -41.507812 56.535156 -43.003906 54.140625 -43.921875 C 51.742188 -44.835938 48.707031 -45.296875 45.03125 -45.296875 L 27.140625 -45.296875 L 27.140625 0 Z M 51.65625 -55.390625 C 57.96875 -55.390625 62.664062 -56.847656 65.75 -59.765625 C 68.832031 -62.691406 70.375 -67.148438 70.375 -73.140625 C 70.375 -79.117188 68.832031 -83.570312 65.75 -86.5 C 62.664062 -89.425781 57.96875 -90.890625 51.65625 -90.890625 L 27.140625 -90.890625 L 27.140625 -55.390625 Z M 51.65625 -55.390625 "/></g></g></g></svg>