<svg xmlns="http://www.w3.org/2000/svg" xmlns:xlink="http://www.w3.org/1999/xlink" width="500" zoomAndPan="magnify" viewBox="0 0 375 160.499995" height="214" preserveAspectRatio="xMidYMid meet" version="1.0"><defs><g/></defs><g fill="#6bb666" fill-opacity="1"><g transform="translate(0.582304, 125.617587)"><g><path d="M 59.484375 0 L 37.25 -38.1875 L 22.515625 -38.1875 L 22.515625 0 L 10.3125 0 L 10.3125 -93.390625 L 40.46875 -93.390625 C 47.519531 -93.390625 53.476562 -92.179688 58.34375 -89.765625 C 63.21875 -87.359375 66.859375 -84.097656 69.265625 -79.984375 C 71.679688 -75.878906 72.890625 -71.191406 72.890625 -65.921875 C 72.890625 -59.484375 71.035156 -53.804688 67.328125 -48.890625 C 63.617188 -43.984375 58.054688 -40.726562 50.640625 -39.125 L 74.09375 0 Z M 22.515625 -47.96875 L 40.46875 -47.96875 C 47.070312 -47.96875 52.023438 -49.597656 55.328125 -52.859375 C 58.640625 -56.117188 60.296875 -60.472656 60.296875 -65.921875 C 60.296875 -71.460938 58.664062 -75.75 55.40625 -78.78125 C 52.144531 -81.820312 47.164062 -83.34375 40.46875 -83.34375 L 22.515625 -83.34375 Z M 22.515625 -47.96875 "/></g></g></g><g fill="#6bb666" fill-opacity="1"><g transform="translate(82.043376, 125.617587)"><g><path d="M 77.3125 -39.53125 C 77.3125 -37.207031 77.175781 -34.75 76.90625 -32.15625 L 18.21875 -32.15625 C 18.664062 -24.914062 21.144531 -19.265625 25.65625 -15.203125 C 30.164062 -11.140625 35.640625 -9.109375 42.078125 -9.109375 C 47.335938 -9.109375 51.734375 -10.335938 55.265625 -12.796875 C 58.796875 -15.253906 61.273438 -18.535156 62.703125 -22.640625 L 75.828125 -22.640625 C 73.867188 -15.585938 69.941406 -9.847656 64.046875 -5.421875 C 58.148438 -1.003906 50.828125 1.203125 42.078125 1.203125 C 35.109375 1.203125 28.875 -0.359375 23.375 -3.484375 C 17.882812 -6.609375 13.578125 -11.050781 10.453125 -16.8125 C 7.328125 -22.570312 5.765625 -29.25 5.765625 -36.84375 C 5.765625 -44.4375 7.28125 -51.09375 10.3125 -56.8125 C 13.351562 -62.53125 17.617188 -66.925781 23.109375 -70 C 28.609375 -73.082031 34.929688 -74.625 42.078125 -74.625 C 49.035156 -74.625 55.191406 -73.101562 60.546875 -70.0625 C 65.910156 -67.03125 70.046875 -62.859375 72.953125 -57.546875 C 75.859375 -52.234375 77.3125 -46.226562 77.3125 -39.53125 Z M 64.71875 -42.078125 C 64.71875 -46.710938 63.6875 -50.707031 61.625 -54.0625 C 59.570312 -57.414062 56.78125 -59.960938 53.25 -61.703125 C 49.726562 -63.441406 45.820312 -64.3125 41.53125 -64.3125 C 35.375 -64.3125 30.128906 -62.34375 25.796875 -58.40625 C 21.460938 -54.476562 18.984375 -49.035156 18.359375 -42.078125 Z M 64.71875 -42.078125 "/></g></g></g><g fill="#6bb666" fill-opacity="1"><g transform="translate(165.112239, 125.617587)"><g><path d="M 46.09375 -74.765625 C 55.019531 -74.765625 62.253906 -72.0625 67.796875 -66.65625 C 73.335938 -61.25 76.109375 -53.457031 76.109375 -43.28125 L 76.109375 0 L 64.046875 0 L 64.046875 -41.53125 C 64.046875 -48.851562 62.210938 -54.457031 58.546875 -58.34375 C 54.890625 -62.226562 49.890625 -64.171875 43.546875 -64.171875 C 37.109375 -64.171875 31.992188 -62.160156 28.203125 -58.140625 C 24.410156 -54.128906 22.515625 -48.28125 22.515625 -40.59375 L 22.515625 0 L 10.3125 0 L 10.3125 -73.421875 L 22.515625 -73.421875 L 22.515625 -62.96875 C 24.921875 -66.71875 28.203125 -69.617188 32.359375 -71.671875 C 36.515625 -73.734375 41.09375 -74.765625 46.09375 -74.765625 Z M 46.09375 -74.765625 "/></g></g></g><g fill="#6bb666" fill-opacity="1"><g transform="translate(250.860736, 125.617587)"><g><path d="M 5.765625 -36.984375 C 5.765625 -44.484375 7.28125 -51.066406 10.3125 -56.734375 C 13.351562 -62.410156 17.53125 -66.8125 22.84375 -69.9375 C 28.15625 -73.0625 34.117188 -74.625 40.734375 -74.625 C 46.453125 -74.625 51.765625 -73.304688 56.671875 -70.671875 C 61.585938 -68.035156 65.34375 -64.578125 67.9375 -60.296875 L 67.9375 -99.140625 L 80.25 -99.140625 L 80.25 0 L 67.9375 0 L 67.9375 -13.796875 C 65.519531 -9.421875 61.941406 -5.828125 57.203125 -3.015625 C 52.472656 -0.203125 46.9375 1.203125 40.59375 1.203125 C 34.070312 1.203125 28.15625 -0.398438 22.84375 -3.609375 C 17.53125 -6.828125 13.351562 -11.335938 10.3125 -17.140625 C 7.28125 -22.953125 5.765625 -29.566406 5.765625 -36.984375 Z M 67.9375 -36.84375 C 67.9375 -42.382812 66.816406 -47.207031 64.578125 -51.3125 C 62.347656 -55.425781 59.332031 -58.578125 55.53125 -60.765625 C 51.738281 -62.953125 47.566406 -64.046875 43.015625 -64.046875 C 38.453125 -64.046875 34.296875 -62.972656 30.546875 -60.828125 C 26.796875 -58.679688 23.800781 -55.550781 21.5625 -51.4375 C 19.332031 -47.332031 18.21875 -42.515625 18.21875 -36.984375 C 18.21875 -31.347656 19.332031 -26.453125 21.5625 -22.296875 C 23.800781 -18.148438 26.796875 -14.984375 30.546875 -12.796875 C 34.296875 -10.609375 38.453125 -9.515625 43.015625 -9.515625 C 47.566406 -9.515625 51.738281 -10.609375 55.53125 -12.796875 C 59.332031 -14.984375 62.347656 -18.148438 64.578125 -22.296875 C 66.816406 -26.453125 67.9375 -31.300781 67.9375 -36.84375 Z M 67.9375 -36.84375 "/></g></g></g><g fill="#000000" fill-opacity="1"><g transform="translate(341.439369, 125.617587)"><g><path d="M 16.609375 -85.34375 C 14.285156 -85.34375 12.320312 -86.144531 10.71875 -87.75 C 9.113281 -89.363281 8.3125 -91.332031 8.3125 -93.65625 C 8.3125 -95.976562 9.113281 -97.941406 10.71875 -99.546875 C 12.320312 -101.160156 14.285156 -101.96875 16.609375 -101.96875 C 18.847656 -101.96875 20.75 -101.160156 22.3125 -99.546875 C 23.875 -97.941406 24.65625 -95.976562 24.65625 -93.65625 C 24.65625 -91.332031 23.875 -89.363281 22.3125 -87.75 C 20.75 -86.144531 18.847656 -85.34375 16.609375 -85.34375 Z M 22.515625 -73.421875 L 22.515625 0 L 10.3125 0 L 10.3125 -73.421875 Z M 22.515625 -73.421875 "/></g></g></g></svg>