<svg xmlns="http://www.w3.org/2000/svg" xmlns:xlink="http://www.w3.org/1999/xlink" width="500" zoomAndPan="magnify" viewBox="0 0 375 160.499995" height="214" preserveAspectRatio="xMidYMid meet" version="1.0"><defs><g/></defs><g fill="#6bb666" fill-opacity="1"><g transform="translate(2.953822, 122.618003)"><g><path d="M 52.25 0 L 34.09375 -32.96875 L 28.984375 -32.96875 L 28.984375 0 L 7.71875 0 L 7.71875 -87.328125 L 43.421875 -87.328125 C 50.304688 -87.328125 56.171875 -86.125 61.015625 -83.71875 C 65.867188 -81.320312 69.5 -78.023438 71.90625 -73.828125 C 74.3125 -69.640625 75.515625 -64.976562 75.515625 -59.84375 C 75.515625 -54.03125 73.875 -48.84375 70.59375 -44.28125 C 67.320312 -39.726562 62.492188 -36.492188 56.109375 -34.578125 L 76.265625 0 Z M 28.984375 -48.015625 L 42.171875 -48.015625 C 46.066406 -48.015625 48.988281 -48.96875 50.9375 -50.875 C 52.894531 -52.789062 53.875 -55.488281 53.875 -58.96875 C 53.875 -62.28125 52.894531 -64.890625 50.9375 -66.796875 C 48.988281 -68.710938 46.066406 -69.671875 42.171875 -69.671875 L 28.984375 -69.671875 Z M 28.984375 -48.015625 "/></g></g></g><g fill="#000000" fill-opacity="1"><g transform="translate(84.064416, 122.618003)"><g><path d="M 28.984375 -70.296875 L 28.984375 -52.625 L 57.46875 -52.625 L 57.46875 -36.203125 L 28.984375 -36.203125 L 28.984375 -17.046875 L 61.203125 -17.046875 L 61.203125 0 L 7.71875 0 L 7.71875 -87.328125 L 61.203125 -87.328125 L 61.203125 -70.296875 Z M 28.984375 -70.296875 "/></g></g></g><g fill="#000000" fill-opacity="1"><g transform="translate(151.36139, 122.618003)"><g><path d="M 85.84375 0 L 64.5625 0 L 28.984375 -53.875 L 28.984375 0 L 7.71875 0 L 7.71875 -87.328125 L 28.984375 -87.328125 L 64.5625 -33.21875 L 64.5625 -87.328125 L 85.84375 -87.328125 Z M 85.84375 0 "/></g></g></g><g fill="#000000" fill-opacity="1"><g transform="translate(244.905421, 122.618003)"><g><path d="M 40.4375 -87.328125 C 49.632812 -87.328125 57.675781 -85.503906 64.5625 -81.859375 C 71.445312 -78.210938 76.773438 -73.09375 80.546875 -66.5 C 84.328125 -59.90625 86.21875 -52.296875 86.21875 -43.671875 C 86.21875 -35.128906 84.328125 -27.539062 80.546875 -20.90625 C 76.773438 -14.269531 71.425781 -9.125 64.5 -5.46875 C 57.570312 -1.820312 49.550781 0 40.4375 0 L 7.71875 0 L 7.71875 -87.328125 Z M 39.0625 -18.40625 C 47.101562 -18.40625 53.363281 -20.601562 57.84375 -25 C 62.320312 -29.394531 64.5625 -35.617188 64.5625 -43.671875 C 64.5625 -51.710938 62.320312 -57.972656 57.84375 -62.453125 C 53.363281 -66.929688 47.101562 -69.171875 39.0625 -69.171875 L 28.984375 -69.171875 L 28.984375 -18.40625 Z M 39.0625 -18.40625 "/></g></g></g><g fill="#000000" fill-opacity="1"><g transform="translate(335.339608, 122.618003)"><g><path d="M 18.40625 -76.640625 C 14.675781 -76.640625 11.628906 -77.738281 9.265625 -79.9375 C 6.898438 -82.132812 5.71875 -84.847656 5.71875 -88.078125 C 5.71875 -91.398438 6.898438 -94.160156 9.265625 -96.359375 C 11.628906 -98.554688 14.675781 -99.65625 18.40625 -99.65625 C 22.0625 -99.65625 25.070312 -98.554688 27.4375 -96.359375 C 29.800781 -94.160156 30.984375 -91.398438 30.984375 -88.078125 C 30.984375 -84.847656 29.800781 -82.132812 27.4375 -79.9375 C 25.070312 -77.738281 22.0625 -76.640625 18.40625 -76.640625 Z M 28.984375 -69.421875 L 28.984375 0 L 7.71875 0 L 7.71875 -69.421875 Z M 28.984375 -69.421875 "/></g></g></g></svg>