<svg xmlns="http://www.w3.org/2000/svg" xmlns:xlink="http://www.w3.org/1999/xlink" width="336" zoomAndPan="magnify" viewBox="0 0 252 143.999998" height="192" preserveAspectRatio="xMidYMid meet" version="1.0"><defs><g/></defs><g fill="#7ab55c" fill-opacity="1"><g transform="translate(0.0000021875, 102.749996)"><g><path d="M 40.109375 0 L 25.109375 -25.75 L 15.171875 -25.75 L 15.171875 0 L 6.953125 0 L 6.953125 -62.953125 L 27.28125 -62.953125 C 32.039062 -62.953125 36.0625 -62.140625 39.34375 -60.515625 C 42.625 -58.890625 45.078125 -56.691406 46.703125 -53.921875 C 48.328125 -51.148438 49.140625 -47.988281 49.140625 -44.4375 C 49.140625 -40.101562 47.890625 -36.28125 45.390625 -32.96875 C 42.890625 -29.65625 39.140625 -27.457031 34.140625 -26.375 L 49.953125 0 Z M 15.171875 -32.34375 L 27.28125 -32.34375 C 31.738281 -32.34375 35.078125 -33.441406 37.296875 -35.640625 C 39.523438 -37.835938 40.640625 -40.769531 40.640625 -44.4375 C 40.640625 -48.175781 39.539062 -51.066406 37.34375 -53.109375 C 35.144531 -55.160156 31.789062 -56.1875 27.28125 -56.1875 L 15.171875 -56.1875 Z M 15.171875 -32.34375 "/></g></g></g><g fill="#7ab55c" fill-opacity="1"><g transform="translate(54.912379, 102.749996)"><g><path d="M 52.125 -26.640625 C 52.125 -25.078125 52.03125 -23.421875 51.84375 -21.671875 L 12.28125 -21.671875 C 12.582031 -16.796875 14.253906 -12.988281 17.296875 -10.25 C 20.335938 -7.507812 24.023438 -6.140625 28.359375 -6.140625 C 31.910156 -6.140625 34.875 -6.96875 37.25 -8.625 C 39.632812 -10.28125 41.3125 -12.492188 42.28125 -15.265625 L 51.125 -15.265625 C 49.800781 -10.503906 47.148438 -6.632812 43.171875 -3.65625 C 39.203125 -0.675781 34.265625 0.8125 28.359375 0.8125 C 23.660156 0.8125 19.457031 -0.238281 15.75 -2.34375 C 12.050781 -4.457031 9.148438 -7.453125 7.046875 -11.328125 C 4.941406 -15.210938 3.890625 -19.71875 3.890625 -24.84375 C 3.890625 -29.957031 4.910156 -34.441406 6.953125 -38.296875 C 9.003906 -42.148438 11.878906 -45.113281 15.578125 -47.1875 C 19.285156 -49.269531 23.546875 -50.3125 28.359375 -50.3125 C 33.054688 -50.3125 37.210938 -49.285156 40.828125 -47.234375 C 44.441406 -45.191406 47.226562 -42.378906 49.1875 -38.796875 C 51.144531 -35.210938 52.125 -31.160156 52.125 -26.640625 Z M 43.625 -28.359375 C 43.625 -31.492188 42.929688 -34.1875 41.546875 -36.4375 C 40.160156 -38.695312 38.28125 -40.414062 35.90625 -41.59375 C 33.53125 -42.769531 30.894531 -43.359375 28 -43.359375 C 23.84375 -43.359375 20.300781 -42.03125 17.375 -39.375 C 14.457031 -36.726562 12.789062 -33.054688 12.375 -28.359375 Z M 43.625 -28.359375 "/></g></g></g><g fill="#7ab55c" fill-opacity="1"><g transform="translate(110.908557, 102.749996)"><g><path d="M 31.078125 -50.40625 C 37.097656 -50.40625 41.972656 -48.582031 45.703125 -44.9375 C 49.441406 -41.289062 51.3125 -36.035156 51.3125 -29.171875 L 51.3125 0 L 43.171875 0 L 43.171875 -28 C 43.171875 -32.9375 41.9375 -36.710938 39.46875 -39.328125 C 37 -41.953125 33.628906 -43.265625 29.359375 -43.265625 C 25.023438 -43.265625 21.578125 -41.910156 19.015625 -39.203125 C 16.453125 -36.492188 15.171875 -32.550781 15.171875 -27.375 L 15.171875 0 L 6.953125 0 L 6.953125 -49.5 L 15.171875 -49.5 L 15.171875 -42.453125 C 16.796875 -44.984375 19.007812 -46.941406 21.8125 -48.328125 C 24.613281 -49.710938 27.703125 -50.40625 31.078125 -50.40625 Z M 31.078125 -50.40625 "/></g></g></g><g fill="#7ab55c" fill-opacity="1"><g transform="translate(168.711059, 102.749996)"><g><path d="M 3.890625 -24.9375 C 3.890625 -29.988281 4.910156 -34.425781 6.953125 -38.25 C 9.003906 -42.070312 11.820312 -45.035156 15.40625 -47.140625 C 18.988281 -49.253906 23.003906 -50.3125 27.453125 -50.3125 C 31.304688 -50.3125 34.890625 -49.421875 38.203125 -47.640625 C 41.515625 -45.867188 44.046875 -43.535156 45.796875 -40.640625 L 45.796875 -66.84375 L 54.109375 -66.84375 L 54.109375 0 L 45.796875 0 L 45.796875 -9.296875 C 44.171875 -6.347656 41.757812 -3.925781 38.5625 -2.03125 C 35.375 -0.132812 31.644531 0.8125 27.375 0.8125 C 22.976562 0.8125 18.988281 -0.269531 15.40625 -2.4375 C 11.820312 -4.601562 9.003906 -7.644531 6.953125 -11.5625 C 4.910156 -15.476562 3.890625 -19.9375 3.890625 -24.9375 Z M 45.796875 -24.84375 C 45.796875 -28.570312 45.039062 -31.820312 43.53125 -34.59375 C 42.03125 -37.363281 40 -39.484375 37.4375 -40.953125 C 34.882812 -42.429688 32.070312 -43.171875 29 -43.171875 C 25.925781 -43.171875 23.125 -42.445312 20.59375 -41 C 18.0625 -39.5625 16.039062 -37.457031 14.53125 -34.6875 C 13.03125 -31.914062 12.28125 -28.664062 12.28125 -24.9375 C 12.28125 -21.132812 13.03125 -17.832031 14.53125 -15.03125 C 16.039062 -12.238281 18.0625 -10.101562 20.59375 -8.625 C 23.125 -7.144531 25.925781 -6.40625 29 -6.40625 C 32.070312 -6.40625 34.882812 -7.144531 37.4375 -8.625 C 40 -10.101562 42.03125 -12.238281 43.53125 -15.03125 C 45.039062 -17.832031 45.796875 -21.101562 45.796875 -24.84375 Z M 45.796875 -24.84375 "/></g></g></g><g fill="#ffffff" fill-opacity="1"><g transform="translate(229.769524, 102.749996)"><g><path d="M 11.203125 -57.546875 C 9.640625 -57.546875 8.3125 -58.085938 7.21875 -59.171875 C 6.132812 -60.253906 5.59375 -61.578125 5.59375 -63.140625 C 5.59375 -64.703125 6.132812 -66.023438 7.21875 -67.109375 C 8.3125 -68.191406 9.640625 -68.734375 11.203125 -68.734375 C 12.703125 -68.734375 13.976562 -68.191406 15.03125 -67.109375 C 16.09375 -66.023438 16.625 -64.703125 16.625 -63.140625 C 16.625 -61.578125 16.09375 -60.253906 15.03125 -59.171875 C 13.976562 -58.085938 12.703125 -57.546875 11.203125 -57.546875 Z M 15.171875 -49.5 L 15.171875 0 L 6.953125 0 L 6.953125 -49.5 Z M 15.171875 -49.5 "/></g></g></g></svg>