<svg xmlns="http://www.w3.org/2000/svg" xmlns:xlink="http://www.w3.org/1999/xlink" width="500" zoomAndPan="magnify" viewBox="0 0 375 160.499995" height="214" preserveAspectRatio="xMidYMid meet" version="1.0"><defs><g/></defs><g fill="#6bb666" fill-opacity="1"><g transform="translate(0.719978, 125.583991)"><g><path d="M 59.453125 0 L 37.21875 -38.15625 L 22.5 -38.15625 L 22.5 0 L 10.3125 0 L 10.3125 -93.328125 L 40.4375 -93.328125 C 47.488281 -93.328125 53.445312 -92.117188 58.3125 -89.703125 C 63.175781 -87.296875 66.8125 -84.039062 69.21875 -79.9375 C 71.632812 -75.832031 72.84375 -71.144531 72.84375 -65.875 C 72.84375 -59.445312 70.988281 -53.773438 67.28125 -48.859375 C 63.570312 -43.953125 58.015625 -40.695312 50.609375 -39.09375 L 74.046875 0 Z M 22.5 -47.9375 L 40.4375 -47.9375 C 47.039062 -47.9375 51.992188 -49.5625 55.296875 -52.8125 C 58.597656 -56.070312 60.25 -60.425781 60.25 -65.875 C 60.25 -71.40625 58.617188 -75.6875 55.359375 -78.71875 C 52.109375 -81.757812 47.132812 -83.28125 40.4375 -83.28125 L 22.5 -83.28125 Z M 22.5 -47.9375 "/></g></g></g><g fill="#6bb666" fill-opacity="1"><g transform="translate(82.121052, 125.583991)"><g><path d="M 77.25 -39.5 C 77.25 -37.175781 77.117188 -34.722656 76.859375 -32.140625 L 18.203125 -32.140625 C 18.648438 -24.898438 21.128906 -19.25 25.640625 -15.1875 C 30.148438 -11.132812 35.617188 -9.109375 42.046875 -9.109375 C 47.304688 -9.109375 51.695312 -10.332031 55.21875 -12.78125 C 58.75 -15.238281 61.226562 -18.519531 62.65625 -22.625 L 75.78125 -22.625 C 73.820312 -15.570312 69.894531 -9.835938 64 -5.421875 C 58.101562 -1.003906 50.785156 1.203125 42.046875 1.203125 C 35.078125 1.203125 28.847656 -0.359375 23.359375 -3.484375 C 17.867188 -6.609375 13.5625 -11.046875 10.4375 -16.796875 C 7.3125 -22.554688 5.75 -29.226562 5.75 -36.8125 C 5.75 -44.40625 7.265625 -51.054688 10.296875 -56.765625 C 13.335938 -62.484375 17.601562 -66.878906 23.09375 -69.953125 C 28.582031 -73.035156 34.898438 -74.578125 42.046875 -74.578125 C 49.003906 -74.578125 55.160156 -73.054688 60.515625 -70.015625 C 65.867188 -66.984375 69.992188 -62.8125 72.890625 -57.5 C 75.796875 -52.195312 77.25 -46.195312 77.25 -39.5 Z M 64.671875 -42.046875 C 64.671875 -46.679688 63.644531 -50.671875 61.59375 -54.015625 C 59.539062 -57.367188 56.75 -59.914062 53.21875 -61.65625 C 49.695312 -63.394531 45.789062 -64.265625 41.5 -64.265625 C 35.34375 -64.265625 30.097656 -62.300781 25.765625 -58.375 C 21.441406 -54.445312 18.96875 -49.003906 18.34375 -42.046875 Z M 64.671875 -42.046875 "/></g></g></g><g fill="#6bb666" fill-opacity="1"><g transform="translate(165.128732, 125.583991)"><g><path d="M 46.0625 -74.71875 C 54.988281 -74.71875 62.21875 -72.015625 67.75 -66.609375 C 73.28125 -61.210938 76.046875 -53.425781 76.046875 -43.25 L 76.046875 0 L 64 0 L 64 -41.5 C 64 -48.820312 62.164062 -54.425781 58.5 -58.3125 C 54.84375 -62.195312 49.847656 -64.140625 43.515625 -64.140625 C 37.085938 -64.140625 31.976562 -62.128906 28.1875 -58.109375 C 24.394531 -54.085938 22.5 -48.238281 22.5 -40.5625 L 22.5 0 L 10.3125 0 L 10.3125 -73.375 L 22.5 -73.375 L 22.5 -62.921875 C 24.90625 -66.671875 28.179688 -69.570312 32.328125 -71.625 C 36.484375 -73.6875 41.0625 -74.71875 46.0625 -74.71875 Z M 46.0625 -74.71875 "/></g></g></g><g fill="#6bb666" fill-opacity="1"><g transform="translate(250.814072, 125.583991)"><g><path d="M 5.75 -36.953125 C 5.75 -44.453125 7.265625 -51.035156 10.296875 -56.703125 C 13.335938 -62.367188 17.515625 -66.765625 22.828125 -69.890625 C 28.140625 -73.015625 34.097656 -74.578125 40.703125 -74.578125 C 46.410156 -74.578125 51.71875 -73.257812 56.625 -70.625 C 61.539062 -67.988281 65.289062 -64.53125 67.875 -60.25 L 67.875 -99.078125 L 80.203125 -99.078125 L 80.203125 0 L 67.875 0 L 67.875 -13.796875 C 65.46875 -9.421875 61.898438 -5.828125 57.171875 -3.015625 C 52.441406 -0.203125 46.90625 1.203125 40.5625 1.203125 C 34.050781 1.203125 28.140625 -0.398438 22.828125 -3.609375 C 17.515625 -6.828125 13.335938 -11.335938 10.296875 -17.140625 C 7.265625 -22.941406 5.75 -29.546875 5.75 -36.953125 Z M 67.875 -36.8125 C 67.875 -42.351562 66.757812 -47.175781 64.53125 -51.28125 C 62.300781 -55.382812 59.289062 -58.53125 55.5 -60.71875 C 51.707031 -62.90625 47.535156 -64 42.984375 -64 C 38.429688 -64 34.28125 -62.925781 30.53125 -60.78125 C 26.78125 -58.644531 23.785156 -55.519531 21.546875 -51.40625 C 19.316406 -47.300781 18.203125 -42.484375 18.203125 -36.953125 C 18.203125 -31.328125 19.316406 -26.4375 21.546875 -22.28125 C 23.785156 -18.132812 26.78125 -14.96875 30.53125 -12.78125 C 34.28125 -10.59375 38.429688 -9.5 42.984375 -9.5 C 47.535156 -9.5 51.707031 -10.59375 55.5 -12.78125 C 59.289062 -14.96875 62.300781 -18.132812 64.53125 -22.28125 C 66.757812 -26.4375 67.875 -31.28125 67.875 -36.8125 Z M 67.875 -36.8125 "/></g></g></g><g fill="#ffffff" fill-opacity="1"><g transform="translate(341.32599, 125.583991)"><g><path d="M 16.609375 -85.28125 C 14.285156 -85.28125 12.316406 -86.082031 10.703125 -87.6875 C 9.097656 -89.300781 8.296875 -91.269531 8.296875 -93.59375 C 8.296875 -95.914062 9.097656 -97.878906 10.703125 -99.484375 C 12.316406 -101.085938 14.285156 -101.890625 16.609375 -101.890625 C 18.835938 -101.890625 20.734375 -101.085938 22.296875 -99.484375 C 23.859375 -97.878906 24.640625 -95.914062 24.640625 -93.59375 C 24.640625 -91.269531 23.859375 -89.300781 22.296875 -87.6875 C 20.734375 -86.082031 18.835938 -85.28125 16.609375 -85.28125 Z M 22.5 -73.375 L 22.5 0 L 10.3125 0 L 10.3125 -73.375 Z M 22.5 -73.375 "/></g></g></g></svg>